<svg version="1.1" id="Layer_1" xmlns="http://www.w3.org/2000/svg" xmlns:xlink="http://www.w3.org/1999/xlink" x="0px" y="0px"
	 width="100%" viewBox="0 0 512 512" enable-background="new 0 0 512 512" xml:space="preserve">
<path fill="#F8FCFB" opacity="1.000000" stroke="none" 
	d="
M512.755005,225.709610 
	C513.000000,246.354233 513.000000,266.708466 513.000000,287.531342 
	C510.955383,290.645691 512.143677,293.806763 511.701904,296.702850 
	C504.841248,341.678955 487.053864,381.845673 458.789368,417.406921 
	C434.694885,447.721619 405.293243,471.565247 370.543335,488.639435 
	C347.237762,500.090515 322.728271,507.913940 296.956390,511.643524 
	C294.161469,512.048035 291.278503,511.384735 288.290497,512.755005 
	C267.645782,513.000000 247.291550,513.000000 226.468658,513.000000 
	C223.504684,511.019379 220.521317,512.207764 217.786102,511.792419 
	C169.464188,504.454315 126.774559,484.862885 89.660248,453.096436 
	C62.621674,429.953857 40.975880,402.560944 25.353724,370.556854 
	C13.961895,347.219147 6.086155,322.731964 2.356434,296.957214 
	C1.951958,294.162018 2.615349,291.278809 1.244980,288.290527 
	C1.000000,267.645782 1.000000,247.291550 1.000000,226.468658 
	C3.044674,223.354584 1.846142,220.193466 2.294991,217.297272 
	C5.860455,194.291122 12.382908,172.217636 21.907888,150.953690 
	C32.900551,126.413208 47.522167,104.240623 65.461754,84.363174 
	C83.745102,64.104828 104.764641,47.059761 128.507004,33.404228 
	C156.110764,17.527792 185.624542,7.301105 217.044312,2.362033 
	C219.839905,1.922576 222.721756,2.615346 225.709534,1.244973 
	C246.354233,1.000000 266.708466,1.000000 287.531342,1.000000 
	C290.145020,2.870844 292.810211,1.880458 295.210358,2.214061 
	C317.947632,5.374364 339.736511,11.747655 360.763123,20.920895 
	C394.077515,35.454910 422.855225,56.394367 447.308380,83.099922 
	C474.720642,113.037193 494.080353,147.634094 505.090088,186.817139 
	C508.650391,199.487961 511.279541,212.312866 512.755005,225.709610 
z"/>
<path fill="#A5DDF2" opacity="1.000000" stroke="none" 
	d="
M14.762323,198.975037 
	C14.792978,201.556107 15.925543,202.492905 17.984823,203.183884 
	C31.425192,207.693604 45.283218,210.217529 59.295609,211.942322 
	C77.992195,214.243713 96.796509,214.468918 115.582092,213.887238 
	C134.321671,213.307007 153.035477,212.127289 171.703354,210.172348 
	C185.229248,208.755890 198.841934,208.184204 212.381577,206.879425 
	C239.028000,204.311584 265.704895,202.572784 292.489227,203.021912 
	C315.991730,203.415985 339.005463,207.532425 361.888367,212.456299 
	C391.231049,218.770172 420.433350,225.811142 450.064697,230.652313 
	C466.925293,233.406982 483.921814,235.721741 501.098328,234.970200 
	C505.741699,234.767029 507.036804,236.341095 507.101379,240.911346 
	C507.425934,263.881409 507.193939,286.767487 502.065887,309.342285 
	C500.415100,316.609314 500.692963,316.588104 493.178406,316.072998 
	C474.173431,314.770325 455.750305,317.899017 437.745392,323.759033 
	C434.771667,324.726868 432.617126,324.216522 429.908447,322.724701 
	C412.037567,312.882507 392.733521,306.523712 373.384552,300.424500 
	C355.491455,294.784210 337.298187,290.202850 318.888824,286.490845 
	C305.395782,283.770142 291.988800,283.966003 278.326447,285.548828 
	C260.879242,287.570038 243.506744,290.199860 225.916489,291.271698 
	C206.872009,292.432098 188.191589,289.811371 169.384277,288.166687 
	C160.293762,287.371674 151.191254,286.692719 142.084976,286.103271 
	C113.050972,284.223999 84.022057,282.086121 54.890411,283.029022 
	C41.765057,283.453857 28.763050,284.948853 15.968624,288.014099 
	C8.402636,289.826752 8.782047,289.775269 7.849231,282.236694 
	C6.265932,269.441223 6.875380,256.630524 7.039656,243.836044 
	C7.231943,228.860031 9.608625,214.115479 13.471070,199.286636 
	C13.953258,198.864670 14.223393,198.742859 14.762323,198.975037 
z"/>
<path fill="#5AC2EE" opacity="1.000000" stroke="none" 
	d="
M96.071198,288.845062 
	C127.286644,290.515594 157.990387,292.491028 188.608429,295.690674 
	C209.392441,297.862610 230.120544,297.111481 250.854828,294.472809 
	C268.812012,292.187561 286.726807,288.328461 304.954956,290.044220 
	C322.383209,291.684723 339.275726,296.259766 356.091980,300.973602 
	C376.931274,306.815155 397.466400,313.549500 417.303986,322.268188 
	C420.464661,323.657318 423.498901,325.334106 427.099854,327.131622 
	C407.530914,337.264496 387.831146,344.723297 366.636841,348.081268 
	C344.542938,351.581787 322.480774,349.657745 300.393616,348.345062 
	C274.359436,346.797791 249.387207,351.637787 225.199280,361.035950 
	C185.902557,376.304657 150.933807,399.075348 116.958443,423.560516 
	C113.446495,426.091492 109.641998,428.318573 106.517708,431.264160 
	C99.987564,437.420685 92.018852,436.929077 84.065186,436.946899 
	C82.140907,436.951202 81.115356,435.558563 79.965485,434.395203 
	C42.968903,396.963074 19.702049,352.371674 10.073483,300.621124 
	C9.290186,296.411133 10.660262,294.826141 14.682199,293.788635 
	C29.611080,289.937408 44.850487,288.758942 60.140640,288.149414 
	C71.952446,287.678558 83.784256,287.893982 96.071198,288.845062 
z"/>
<path fill="#FCC899" opacity="1.000000" stroke="none" 
	d="
M15.284878,199.086899 
	C14.810402,199.260635 14.589685,199.192230 14.026046,199.055145 
	C15.737341,185.920944 20.390005,173.645645 25.314541,161.482452 
	C27.683247,155.631958 30.704580,150.048859 33.233700,144.258774 
	C34.461815,141.447159 36.265213,140.847275 39.163765,141.222870 
	C53.779007,143.116638 68.347237,141.577866 82.928574,140.445969 
	C105.429504,138.699326 127.956673,135.385056 150.471054,140.036499 
	C161.279587,142.269531 171.262207,147.025146 181.389633,151.232697 
	C203.145508,160.271378 225.698196,166.333603 248.942581,170.009155 
	C269.085907,173.194351 289.374908,173.766174 309.658234,172.805954 
	C327.582764,171.957397 345.397522,169.321564 362.741272,164.714249 
	C385.080872,158.779800 406.829254,161.078430 428.565277,167.343063 
	C452.128571,174.134308 474.729065,183.404251 497.014954,193.532959 
	C499.573730,194.695892 500.372009,196.677414 500.807098,198.938568 
	C502.562714,208.061859 504.155518,217.216354 505.852142,226.351212 
	C506.412109,229.366074 504.994141,230.017456 502.269653,230.034882 
	C487.768677,230.127609 473.399841,228.607971 459.093140,226.512146 
	C422.100830,221.093124 385.837555,212.023911 349.318909,204.256226 
	C317.958710,197.585754 286.241699,196.942841 254.465134,198.267593 
	C232.908569,199.166260 211.392654,201.255096 189.889359,203.159424 
	C166.558746,205.225586 143.239456,207.132645 119.828674,208.299179 
	C90.430344,209.764084 61.412594,208.088409 32.667557,201.861282 
	C28.297915,200.914673 24.066433,199.338821 19.755028,198.110229 
	C18.271856,197.687607 16.570303,196.481613 15.284878,199.086899 
z"/>
<path fill="#0BACD0" opacity="1.000000" stroke="none" 
	d="
M113.844467,433.053619 
	C128.509583,421.030243 144.168549,410.631378 160.078323,400.625336 
	C188.197968,382.940247 217.355133,367.493378 249.682281,358.659760 
	C270.620697,352.938232 291.859283,352.729828 313.145966,354.464569 
	C351.075714,357.555603 387.347534,352.896545 421.901520,335.738525 
	C442.053619,325.731873 463.887329,320.863251 486.586517,321.063324 
	C499.548676,321.177551 499.644623,321.404388 495.702057,333.552826 
	C488.362793,356.167572 478.029968,377.320496 464.848297,397.115845 
	C462.686523,400.362305 460.023315,402.344574 456.408325,403.598511 
	C441.931427,408.620300 426.900513,410.294098 411.744324,410.939545 
	C393.276093,411.725983 374.794220,412.245361 356.313385,412.666718 
	C336.047211,413.128784 316.938934,418.444824 298.168793,425.628906 
	C285.904053,430.323090 273.511078,434.667358 260.297119,436.134644 
	C244.113647,437.931763 228.469193,434.714966 212.814789,431.481110 
	C196.837372,428.180542 180.891037,424.395630 164.431717,425.234802 
	C149.759430,425.982880 135.551315,429.888367 121.150421,432.472107 
	C119.185265,432.824707 117.215599,433.152222 114.833031,433.483826 
	C114.241112,433.426178 114.064186,433.376129 113.844467,433.053619 
z"/>
<path fill="#247EA9" opacity="1.000000" stroke="none" 
	d="
M435.932312,413.942505 
	C442.364563,412.639679 448.362549,411.379547 454.397278,410.111725 
	C444.389618,433.022949 387.746063,475.488892 345.897858,491.317352 
	C302.015198,507.915375 256.901306,512.027527 210.849670,503.238770 
	C164.614655,494.415131 106.529633,465.005737 89.334373,442.304840 
	C112.092766,440.592194 133.953217,434.593353 156.258408,431.258240 
	C174.744965,428.494141 192.734253,432.553497 210.663849,436.386200 
	C221.253204,438.649811 231.876114,440.643677 242.669098,441.626282 
	C258.768768,443.092072 274.105499,439.670776 289.190887,434.460846 
	C302.702881,429.794312 315.879608,424.067688 329.927948,421.069611 
	C345.820923,417.677765 362.005035,417.391235 378.155518,417.118011 
	C397.314575,416.793915 416.473053,416.674042 435.932312,413.942505 
z"/>
<path fill="#4CBB8D" opacity="1.000000" stroke="none" 
	d="
M229.231812,97.796310 
	C232.559555,101.404984 234.968445,105.235687 236.626892,109.420319 
	C241.226395,121.025887 250.259552,125.341606 262.077972,126.056335 
	C275.247833,126.852783 288.386780,125.938538 301.539795,126.032204 
	C328.457550,126.223900 351.030792,137.587616 371.987854,153.167221 
	C373.120026,154.008881 374.521057,154.818634 374.822296,156.923889 
	C360.965637,159.552643 347.322662,163.061005 333.362610,165.029007 
	C278.915375,172.704651 226.393661,165.678970 176.251709,143.205307 
	C152.078232,132.370743 127.209389,131.127670 101.473099,133.476852 
	C81.447136,135.304779 61.422081,138.264832 41.200970,136.220169 
	C40.253246,136.124329 39.313526,135.949387 37.834942,135.732941 
	C43.063210,125.805428 49.014542,116.839142 55.417858,108.168831 
	C67.748558,91.472633 81.938057,76.538429 97.945869,63.305851 
	C100.238998,61.410271 101.699638,61.276291 104.321548,62.883873 
	C117.477554,70.950310 132.358383,73.962311 147.227905,76.958931 
	C163.585541,80.255463 180.324783,80.409126 196.748978,83.044739 
	C208.723953,84.966377 220.095535,88.578819 229.231812,97.796310 
z"/>
<path fill="#198D76" opacity="1.000000" stroke="none" 
	d="
M496.827911,187.348999 
	C477.199463,179.050034 457.816193,170.672470 437.540527,164.610794 
	C420.278015,159.449936 402.924957,154.782959 384.632324,156.001450 
	C382.721191,156.128754 381.697235,155.217361 380.395081,154.045059 
	C358.308105,134.160751 332.967072,121.809540 302.767456,120.940941 
	C287.630249,120.505569 272.460175,122.128838 257.342529,120.132881 
	C250.942978,119.287956 245.611130,116.571777 243.177795,110.502731 
	C233.839737,87.212440 214.377121,79.480240 191.762299,77.048401 
	C170.082962,74.717163 148.320862,73.124878 127.267296,66.932892 
	C119.804436,64.738014 112.469597,62.192287 105.548203,57.467476 
	C117.400238,48.279648 130.068329,41.347862 142.447510,33.879082 
	C159.007187,23.888073 175.882462,22.234022 194.552475,26.615318 
	C222.224869,33.109203 249.110489,41.368000 274.174805,54.966980 
	C284.826569,60.746212 294.507202,67.771500 301.505310,77.856956 
	C313.385651,94.978531 330.450287,102.712593 350.470795,103.687614 
	C375.193085,104.891632 397.586121,112.951157 419.260376,124.057762 
	C441.494141,135.451080 463.277313,147.588043 484.140045,161.369476 
	C488.660156,164.355362 491.915955,167.798218 493.219757,173.173279 
	C494.274780,177.522690 495.864288,181.742462 497.214844,186.407440 
	C497.165527,186.956604 497.118042,187.118042 496.827911,187.348999 
z"/>
<path fill="#037B60" opacity="1.000000" stroke="none" 
	d="
M485.065125,155.112656 
	C469.573059,146.027176 454.489075,136.598099 438.745880,128.293732 
	C424.773224,120.923302 410.622192,113.959908 396.048004,107.814560 
	C382.951294,102.292206 369.207031,100.323074 355.260834,99.037163 
	C348.625000,98.425308 342.030884,97.521233 335.568726,95.875954 
	C326.673645,93.611267 318.024017,90.054024 312.682953,82.529907 
	C292.353760,53.891441 262.122406,41.399475 230.551941,30.909613 
	C215.380829,25.868732 199.929504,21.908752 184.054886,19.749247 
	C182.918320,19.594637 181.808029,19.246714 180.360626,18.913984 
	C283.542450,-17.199663 425.620789,23.682560 485.403290,154.190369 
	C485.441345,154.698929 485.380005,154.865387 485.065125,155.112656 
z"/>
<path fill="#0BACD0" opacity="1.000000" stroke="none" 
	d="
M114.266235,433.300476 
	C113.869316,433.549286 113.320587,433.622314 112.771858,433.695343 
	C112.947426,433.427673 113.123009,433.160034 113.550125,432.836792 
	C113.801666,432.781158 114.114426,433.124664 114.266235,433.300476 
z"/>
<path fill="#198D76" opacity="1.000000" stroke="none" 
	d="
M497.054810,186.949738 
	C497.935608,187.352341 498.026855,187.716034 496.758026,187.567184 
	C496.585236,187.418503 496.896637,187.104324 497.054810,186.949738 
z"/>
<path fill="#037B60" opacity="1.000000" stroke="none" 
	d="
M485.326721,154.694351 
	C485.593628,154.907654 485.684570,155.282837 485.775543,155.658020 
	C485.530365,155.667816 485.285217,155.677597 484.925842,155.440430 
	C484.811615,155.193481 485.150726,154.856247 485.326721,154.694351 
z"/>
</svg>